<?xml version="1.0" encoding="UTF-8" standalone="no"?>
<svg  xmlns="http://www.w3.org/2000/svg" version="1.1" width="128" height="128" viewBox="0 0 256 256">
  <rect width="254" height="254" x="1" y="1" style="fill:#ffffff" />
  <path d="M 1,1 255,1 255,255 1,255 z M 85,1 85,255 M 169,1 169,255 M 1,85 255,85 M 1,169 255,169" style="fill:none;stroke:#000000;stroke-width:2" />
  <rect width="65" height="65" ry="2" x="180" y="180" style="fill:#bbbbbb" />
  <path d="M 204.856,199 209.306,199 C 217.556,199 221.256,203 221.256,212 221.256,220.95 217.556,225 209.306,225 L 204.856,225 204.856,199 M 197.656,193.95 197.656,230 208.556,230 C 223.206,230 229.806,224.35 229.806,212 229.806,199.45 223.056,193.95 208.556,193.95 L 197.656,193.95 M 134.741,213.2 C 138.641,212 140.691,209 140.691,204.6 140.691,197.45 136.141,193.95 127.141,193.95 L 115.341,193.95 115.341,230 122.491,230 122.491,215.4 126.341,215.4 C 129.241,215.4 130.641,216.4 132.391,220.85 L 135.591,230 143.141,230 140.391,219.8 C 138.491,216 136.691,213.8 134.741,213.2 M 122.491,199 127.141,199 C 130.491,199.1 132.141,201 132.141,204.6 132.141,208.3 130.441,210.25 127.141,210.25 L 122.491,210.25 122.491,199 M 42.9758,198.5 C 48.7258,198.5 52.1758,203.75 52.1758,212.05 52.1758,220.4 48.5758,225.55 42.9758,225.55 37.2758,225.55 33.8258,220.2 33.8258,212.05 33.8258,203.5 37.4258,198.5 42.9758,198.5 M 42.9758,193.35 C 32.2258,193.35 25.2758,200.6 25.2758,212.05 25.2758,223.35 32.1758,230.65 42.9758,230.65 53.8758,230.65 60.6758,223.25 60.6758,212.05 60.6758,200.55 53.5758,193.35 42.9758,193.35 M 188.856,108.95 198.156,145 206.606,145 213.056,114.7 219.406,145 227.856,145 237.206,108.95 229.606,108.95 223.306,138.4 216.906,108.95 209.106,108.95 202.756,138.4 196.406,108.95 188.856,108.95 M 139.017,110.35 C 135.117,108.95 131.567,108.35 128.067,108.35 119.617,108.35 114.667,112.35 114.667,118.85 114.667,124.65 117.917,127.6 125.667,129.05 L 128.317,129.65 C 131.967,130.5 133.367,132.15 133.367,135.1 133.367,138.65 130.967,140.55 127.117,140.55 123.267,140.55 119.267,139.35 115.417,137.35 L 115.417,143.25 C 119.767,144.9 123.717,145.65 127.117,145.65 136.617,145.65 141.617,141.85 141.617,134.75 141.617,128.7 137.967,125.25 130.317,123.8 L 127.667,123.2 C 123.767,122.3 122.667,121.25 122.717,118.5 122.767,115.1 124.967,113.5 128.617,113.5 131.917,113.5 135.117,114.4 139.017,115.85 L 139.017,110.35 M 54.0168,110.35 C 50.1168,108.95 46.5668,108.35 43.0668,108.35 34.6168,108.35 29.6668,112.35 29.6668,118.85 29.6668,124.65 32.9168,127.6 40.6668,129.05 L 43.3168,129.65 C 46.9668,130.5 48.3668,132.15 48.3668,135.1 48.3668,138.65 45.9668,140.55 42.1168,140.55 38.2668,140.55 34.2668,139.35 30.4168,137.35 L 30.4168,143.25 C 34.7668,144.9 38.7168,145.65 42.1168,145.65 51.6168,145.65 56.6168,141.85 56.6168,134.75 56.6168,128.7 52.9668,125.25 45.3168,123.8 L 42.6668,123.2 C 38.7668,122.3 37.6668,121.25 37.7168,118.5 37.7668,115.1 39.9668,113.5 43.6168,113.5 46.9168,113.5 50.1168,114.4 54.0168,115.85 L 54.0168,110.35 M 212.976,28.5 C 218.726,28.5 222.176,33.75 222.176,42.05 222.176,50.4 218.576,55.55 212.976,55.55 207.276,55.55 203.826,50.2 203.826,42.05 203.826,33.5 207.426,28.5 212.976,28.5 M 212.976,23.35 C 202.226,23.35 195.276,30.6 195.276,42.05 195.276,53.35 202.176,60.65 212.976,60.65 223.876,60.65 230.676,53.25 230.676,42.05 230.676,30.55 223.576,23.35 212.976,23.35 M 134.741,43.2 C 138.641,42 140.691,39 140.691,34.6 140.691,27.45 136.141,23.95 127.141,23.95 L 115.341,23.95 115.341,60 122.491,60 122.491,45.4 126.341,45.4 C 129.241,45.4 130.641,46.4 132.391,50.85 L 135.591,60 143.141,60 140.391,49.8 C 138.491,46 136.691,43.8 134.741,43.2 M 122.491,29 127.141,29 C 130.491,29.1 132.141,31 132.141,34.6 132.141,38.3 130.441,40.25 127.141,40.25 L 122.491,40.25 122.491,29 M 58.5172,26.95 C 55.0172,24.5 51.0172,23.35 46.3172,23.35 34.8172,23.35 27.7172,30.4 27.7172,42.05 27.7172,53.65 34.8672,60.65 46.3172,60.65 51.0172,60.65 54.9672,59.45 58.5172,57 L 58.5172,51.15 C 54.8672,54.1 51.0172,55.45 46.6172,55.45 39.7172,55.45 36.2172,50.55 36.2172,42.05 36.2172,33.15 40.0172,28.55 46.6172,28.55 51.1172,28.55 55.1172,30 58.5172,32.8 L 58.5172,26.95" />
  <path d="M 191.413,22.1609 A 30,30 0 0 1 233.839,64.5873 L 64.5873,233.839 A 30,30 0 0 1 22.1609,191.413 z" style="fill:none;stroke:#00bb00;stroke-width:6" />
  <path d="M 43,73 A 30,30 0 0 1 43,13 L 213,13 A 30,30 0 0 1 213,73 z" style="fill:none;stroke:#0000dd;stroke-width:6" />
  <path d="M 98,43 A 30,30 0 1 1 158,43 L 158,213 A 30,30 0 0 1 98,213 z" style="fill:none;stroke:#dd0000;stroke-width:6" />
</svg>
